<?xml version="1.0" encoding="UTF-8"?>
<svg width="102px" height="35px" viewBox="0 0 102 35" version="1.1" xmlns="http://www.w3.org/2000/svg" xmlns:xlink="http://www.w3.org/1999/xlink">
    <title>PoweredByContentful_DarkBackground_MonochromeLogo</title>
    <g id="Page-1" stroke="none" stroke-width="1" fill="none" fill-rule="evenodd">
        <g id="Home-Version-C" transform="translate(-343.000000, -246.000000)">
            <g id="PoweredByContentful_DarkBackground_MonochromeLogo" transform="translate(343.000000, 246.000000)">
                <path d="M6.7,27.35 L6.7,27.35 C5.61058014,26.2636921 4.99828815,24.7884734 4.99828815,23.25 C4.99828815,21.7115266 5.61058014,20.2363079 6.7,19.15 L6.7,19.15 C7.5836556,18.2663444 7.5836556,16.8336556 6.7,15.95 C5.8163444,15.0663444 4.3836556,15.0663444 3.5,15.95 C1.58513186,17.8982389 0.508401888,20.5182818 0.5,23.25 C0.527164854,25.9779496 1.60112283,28.5912473 3.5,30.55 C4.3836556,31.4336556 5.8163444,31.4336556 6.7,30.55 C7.5836556,29.6663444 7.5836556,28.2336556 6.7,27.35 L6.7,27.35 Z" id="Path" stroke="#CECECE"></path>
                <path d="M6.7,19.15 L6.7,19.15 C7.78630788,18.0605801 9.26152659,17.4482882 10.8,17.4482882 C12.3384734,17.4482882 13.8136921,18.0605801 14.9,19.15 L14.9,19.15 C15.7836556,20.0336556 17.2163444,20.0336556 18.1,19.15 C18.9836556,18.2663444 18.9836556,16.8336556 18.1,15.95 C16.1517611,14.0351319 13.5317182,12.9584019 10.8,12.95 C8.07205045,12.9771649 5.45875271,14.0511228 3.5,15.95 C2.6163444,16.8336556 2.6163444,18.2663444 3.5,19.15 C4.3836556,20.0336556 5.8163444,20.0336556 6.7,19.15 L6.7,19.15 Z" id="Path" stroke="#CECECE"></path>
                <path d="M14.9,27.35 L14.9,27.35 C13.8136921,28.4394199 12.3384734,29.0517118 10.8,29.0517118 C9.26152659,29.0517118 7.78630788,28.4394199 6.7,27.35 L6.7,27.35 C5.8163444,26.4663444 4.3836556,26.4663444 3.5,27.35 C2.6163444,28.2336556 2.6163444,29.6663444 3.5,30.55 C5.44823889,32.4648681 8.06828183,33.5415981 10.8,33.55 C13.5279496,33.5228351 16.1412473,32.4488772 18.1,30.55 C18.9836556,29.6663444 18.9836556,28.2336556 18.1,27.35 C17.2163444,26.4663444 15.7836556,26.4663444 14.9,27.35 Z" id="Path" stroke="#CECECE"></path>
                <circle id="Oval" stroke="#CECECE" transform="translate(5.134174, 17.550703) rotate(-45.020000) translate(-5.134174, -17.550703) " cx="5.13417387" cy="17.5507025" r="2.3"></circle>
                <circle id="Oval" stroke="#CECECE" transform="translate(5.130931, 28.931837) rotate(-45.020000) translate(-5.130931, -28.931837) " cx="5.13093098" cy="28.9318369" r="2.3"></circle>
                <path d="M28.3,25.35 C29,24.85 29,25.15 29.6,25.65 C29.9,25.95 30.6,26.45 30.1,26.85 C29.2072793,27.6793795 28.0169422,28.1122294 26.8,28.05 C24.1502311,28.1571891 21.9136139,26.0995012 21.8,23.45 L21.8,22.82 C21.8661135,21.4916489 22.4386973,20.2391218 23.4,19.32 C24.3421288,18.5160888 25.5655217,18.1202853 26.8,18.22 C27.412277,18.2219827 28.020176,18.3232992 28.6,18.52 C28.9778582,18.6987619 29.3451304,18.8990922 29.7,19.12 C30.4,19.62 30.1,19.92 29.5,20.42 C29.3764781,20.533954 29.2748097,20.6695119 29.2,20.82 C28.9,21.12 28.8,21.32 28.4,21.02 C27.747001,20.5170822 26.9028566,20.3335725 26.1,20.52 C23.5,21.22 23.7,25.82 26.8,25.82 C27.3356431,25.8161744 27.8579475,25.652519 28.3,25.35 L28.3,25.35 Z M100.1,27.95 C99.6707729,27.9209663 99.3290337,27.5792271 99.3,27.15 L99.3,16.95 C99.3290337,16.5207729 99.6707729,16.1790337 100.1,16.15 L100.9,16.15 C101.329227,16.1790337 101.670966,16.5207729 101.7,16.95 L101.7,27.15 C101.670966,27.5792271 101.329227,27.9209663 100.9,27.95 L100.1,27.95 Z M95.7,26.75 C94.9077332,27.6175752 93.7741071,28.0929668 92.6,28.05 C90,28.05 88.7,25.85 88.7,23.45 L88.7,19.35 C88.7290337,18.9207729 89.0707729,18.5790337 89.5,18.55 L90.3,18.55 C90.7292271,18.5790337 91.0709663,18.9207729 91.1,19.35 L91.1,23.45 C91.005741,24.0091432 91.1449798,24.5824744 91.4851994,25.0361005 C91.8254189,25.4897265 92.33683,25.7839286 92.9,25.85 L93.3,25.85 C93.923305,25.8368793 94.5158518,25.5766166 94.9472154,25.1264981 C95.378579,24.6763795 95.6134028,24.073299 95.6,23.45 L95.6,19.35 C95.6290337,18.9207729 95.9707729,18.5790337 96.4,18.55 L97.2,18.55 C97.6292271,18.5790337 97.9709663,18.9207729 98,19.35 L98,27.15 C97.9709663,27.5792271 97.6292271,27.9209663 97.2,27.95 L96.5,27.95 C96.1,27.95 95.8,27.55 95.7,27.15 L95.7,26.75 L95.7,26.75 Z M85.5,18.55 L87.1,18.55 C87.5292271,18.5790337 87.8709663,18.9207729 87.9,19.35 L87.9,19.82 C87.9027136,20.0329935 87.8192998,20.2380571 87.6686785,20.3886785 C87.5180571,20.5392998 87.3129935,20.6227136 87.1,20.62 L85.5,20.62 L85.5,27.02 C85.4709663,27.4492271 85.1292271,27.7909663 84.7,27.82 L83.9,27.82 C83.4707729,27.7909663 83.1290337,27.4492271 83.1,27.02 L83.1,18.12 C82.9548768,16.2487583 84.332258,14.6047871 86.2,14.42 L87.6,14.42 C88.0292271,14.4490337 88.3709663,14.7907729 88.4,15.22 L88.4,15.72 C88.4027136,15.9329935 88.3192998,16.1380571 88.1686785,16.2886785 C88.0180571,16.4392998 87.8129935,16.5227136 87.6,16.52 L86.9,16.52 C86,16.52 85.6,17.22 85.6,18.12 L85.5,18.52 L85.5,18.55 Z M79.7,18.55 L81.5,18.55 C81.9292271,18.5790337 82.2709663,18.9207729 82.3,19.35 L82.3,19.82 C82.2709663,20.2492271 81.9292271,20.5909663 81.5,20.62 L79.7,20.62 L79.7,24.52 C79.7,25.32 80.1,25.72 80.8,25.72 L81.2,25.72 C81.6292271,25.7490337 81.9709663,26.0907729 82,26.52 L82,27.02 C81.9709663,27.4492271 81.6292271,27.7909663 81.2,27.82 L80.1,27.82 C78.2,27.72 77.3,26.42 77.3,24.52 L77.3,16.92 C77.3290337,16.4907729 77.6707729,16.1490337 78.1,16.12 L78.9,16.12 C79.3292271,16.1490337 79.6709663,16.4907729 79.7,16.92 L79.7,18.55 Z M53.7,18.55 L55.5,18.55 C55.9292271,18.5790337 56.2709663,18.9207729 56.3,19.35 L56.3,19.82 C56.2709663,20.2492271 55.9292271,20.5909663 55.5,20.62 L53.7,20.62 L53.7,24.52 C53.7,25.32 54.1,25.72 54.8,25.72 L55.2,25.72 C55.4129935,25.7172864 55.6180571,25.8007002 55.7686785,25.9513215 C55.9192998,26.1019429 56.0027136,26.3070065 56,26.52 L56,26.52 L56,27.02 C55.9709663,27.4492271 55.6292271,27.7909663 55.2,27.82 L54.7,27.82 C52.6,27.82 51.3,26.92 51.3,24.52 L51.3,16.92 C51.3290337,16.4907729 51.6707729,16.1490337 52.1,16.12 L52.9,16.12 C53.3292271,16.1490337 53.6709663,16.4907729 53.7,16.92 L53.7,18.55 Z M43.2,19.65 C43.9922964,18.8421559 45.068768,18.3756849 46.2,18.35 C48.8,18.35 50.2,20.45 50.2,22.95 L50.2,27.05 C50.1709663,27.4792271 49.8292271,27.8209663 49.4,27.85 L48.6,27.85 C48.1707729,27.8209663 47.8290337,27.4792271 47.8,27.05 L47.8,22.95 C47.894259,22.3908568 47.7550202,21.8175256 47.4148006,21.3638995 C47.0745811,20.9102735 46.56317,20.6160714 46,20.55 L45.6,20.55 C44.976695,20.5631207 44.3841482,20.8233834 43.9527846,21.2735019 C43.521421,21.7236205 43.2865972,22.326701 43.3,22.95 L43.3,27.05 C43.2709663,27.4792271 42.9292271,27.8209663 42.5,27.85 L41.7,27.85 C41.2707729,27.8209663 40.9290337,27.4792271 40.9,27.05 L40.9,19.25 C40.9290337,18.8207729 41.2707729,18.4790337 41.7,18.45 L42.37,18.45 C42.77,18.45 43.07,18.85 43.17,19.25 L43.2,19.65 Z M69.2,19.65 C69.9922964,18.8421559 71.068768,18.3756849 72.2,18.35 C74.8,18.35 76.2,20.45 76.2,22.95 L76.2,27.05 C76.1709663,27.4792271 75.8292271,27.8209663 75.4,27.85 L74.6,27.85 C74.1707729,27.8209663 73.8290337,27.4792271 73.8,27.05 L73.8,22.95 C73.894259,22.3908568 73.7550202,21.8175256 73.4148006,21.3638995 C73.0745811,20.9102735 72.56317,20.6160714 72,20.55 L71.6,20.55 C70.976695,20.5631207 70.3841482,20.8233834 69.9527846,21.2735019 C69.521421,21.7236205 69.2865972,22.326701 69.3,22.95 L69.3,27.05 C69.2709663,27.4792271 68.9292271,27.8209663 68.5,27.85 L67.7,27.85 C67.2707729,27.8209663 66.9290337,27.4792271 66.9,27.05 L66.9,19.25 C66.9290337,18.8207729 67.2707729,18.4790337 67.7,18.45 L68.37,18.45 C68.77,18.45 69.07,18.85 69.17,19.25 L69.17,19.65 L69.2,19.65 Z M35.2,18.35 C33.9268819,18.3232003 32.6952888,18.8033857 31.7762994,19.6848653 C30.85731,20.5663449 30.3262471,21.7768704 30.3,23.05 L30.3,23.25 C30.1804427,25.8115593 32.1403878,27.9942255 34.7,28.15 L35.2,28.15 C37.7615593,28.2695573 39.9442255,26.3096122 40.1,23.75 L40.1,23.25 C40.2195573,20.6884407 38.2596122,18.5057745 35.7,18.35 L35.2,18.35 Z M58.9,24.05 C59.2274101,25.2492182 60.3606562,26.0466876 61.6,25.95 C62.22327,25.9616862 62.8403401,25.8245595 63.4,25.55 C63.5,25.55 63.6,25.45 63.7,25.45 C64,25.25 64.3,25.15 64.5,25.45 L64.9,25.85 L65.3,26.25 C65.7,26.75 65.4,26.85 65,27.15 C63.9761638,27.7806632 62.8022468,28.1259329 61.6,28.15 C58.5,28.15 56.4,26.25 56.4,23.15 C56.3236704,21.914276 56.7465144,20.6996215 57.5737065,19.7784303 C58.4008985,18.8572391 59.5632154,18.306601 60.8,18.25 L61.37,18.25 C64.37,18.25 66.07,20.05 66.17,23.05 C66.17,23.85 66.27,24.15 65.37,24.15 L58.87,24.15 L58.9,24.05 Z M35.3,20.55 C35.9906572,20.573373 36.6433338,20.8717842 37.1128405,21.3788514 C37.5823472,21.8859186 37.8297451,22.5595879 37.8,23.25 L37.8,23.25 C37.9101121,24.1641147 37.5109004,25.0651451 36.7598246,25.5977008 C36.0087488,26.1302565 35.0263795,26.2088461 34.2001892,25.8024717 C33.373999,25.3960973 32.8366166,24.5699944 32.8,23.65 L32.8,23.25 C32.6716941,21.8998457 33.6517574,20.6970408 35,20.55 L35.3,20.55 Z M58.9,22.05 L63.7,22.05 C63.4973149,20.9681475 62.4937079,20.226351 61.4,20.35 C60.2756991,20.2773249 59.2457235,20.9777083 58.9,22.05 L58.9,22.05 Z" id="Shape" fill="#CECECE" fill-rule="nonzero"></path>
                <path d="M24.77,1.12 L26.06,1.12 C26.2721194,1.11650815 26.4838207,1.14003051 26.69,1.19 C26.8668272,1.23381594 27.0333168,1.31196412 27.18,1.42 C27.3132722,1.51897272 27.419809,1.64956627 27.49,1.8 C27.5667073,1.96947036 27.6043023,2.15402769 27.6,2.34 C27.6057212,2.52609609 27.5680616,2.71097078 27.49,2.88 C27.4169957,3.03156739 27.3069328,3.16226713 27.17,3.26 C27.0229252,3.36737623 26.85657,3.44546132 26.68,3.49 C26.4744482,3.5443396 26.2626095,3.57123976 26.05,3.57 L25.24,3.57 L25.24,5.67 L24.77,5.67 L24.77,1.12 Z M25.23,3.12 L26.01,3.12 C26.3019966,3.14046598 26.5928718,3.06687103 26.84,2.91 C27.0312394,2.76323814 27.136343,2.53050872 27.12,2.29 C27.1398756,2.04657344 27.0295834,1.81077638 26.83,1.67 C26.5823184,1.52405606 26.2970627,1.45448152 26.01,1.47 L25.23,1.47 L25.23,3.12 Z" id="Shape" fill="#CECECE" fill-rule="nonzero"></path>
                <path d="M34.37,3.4 C34.3793708,3.74216211 34.3180952,4.08258178 34.19,4.4 C33.9603326,4.96910132 33.5091013,5.4203326 32.94,5.65 C32.3362045,5.88943746 31.6637955,5.88943746 31.06,5.65 C30.4908987,5.4203326 30.0396674,4.96910132 29.81,4.4 C29.6819048,4.08258178 29.6206292,3.74216211 29.63,3.4 C29.6206292,3.05783789 29.6819048,2.71741822 29.81,2.4 C30.0396674,1.83089868 30.4908987,1.3796674 31.06,1.15 C31.6637955,0.910562538 32.3362045,0.910562538 32.94,1.15 C33.5091013,1.3796674 33.9603326,1.83089868 34.19,2.4 C34.3180952,2.71741822 34.3793708,3.05783789 34.37,3.4 Z M33.880021,3.4 C33.8811235,3.14104011 33.8371327,2.88386344 33.75,2.64 C33.6655903,2.40724719 33.536504,2.1932356 33.37,2.01 C33.204962,1.82765663 33.0041186,1.68127924 32.78,1.58 C32.2756549,1.36314965 31.7043451,1.36314965 31.2,1.58 C30.9758814,1.68127924 30.775038,1.82765663 30.61,2.01 C30.4468645,2.19393579 30.3211833,2.40793351 30.24,2.64 C30.0677417,3.13202543 30.0677417,3.66797457 30.24,4.16 C30.3043052,4.40002615 30.4165622,4.62454014 30.57,4.82 C30.7352292,5.00213062 30.9360254,5.14847357 31.16,5.25 C31.6643451,5.46685035 32.2356549,5.46685035 32.74,5.25 C32.9781601,5.15304464 33.1929282,5.00645685 33.37,4.82 C33.5339868,4.63668401 33.6597727,4.42250803 33.74,4.19 C33.8204606,3.93479907 33.8543339,3.66720023 33.84,3.4 L33.880021,3.4 Z" id="Shape" fill="#CECECE" fill-rule="nonzero"></path>
                <polygon id="Path" fill="#CECECE" fill-rule="nonzero" points="37.72 5.04 37.72 5.04 38.87 1.12 39.42 1.12 40.56 5.04 40.56 5.04 41.69 1.12 42.18 1.12 40.83 5.67 40.29 5.67 39.15 1.76 39.15 1.76 37.99 5.67 37.45 5.67 36.1 1.12 36.59 1.12"></polygon>
                <polygon id="Path" fill="#CECECE" fill-rule="nonzero" points="44.66 5.26 47.1 5.26 47.1 5.67 44.2 5.67 44.2 1.12 47.02 1.12 47.02 1.53 44.66 1.53 44.66 3.09 46.87 3.09 46.87 3.5 44.66 3.5"></polygon>
                <path d="M49.79,5.67 L49.37,5.67 L49.37,1.12 L50.67,1.12 C50.8782448,1.11712563 51.0861707,1.13724748 51.29,1.18 C51.4687609,1.21674202 51.6386137,1.28808019 51.79,1.39 C51.9269328,1.48773287 52.0369957,1.61843261 52.11,1.77 C52.1943292,1.9478989 52.2354454,2.14320119 52.23,2.34 C52.2354947,2.64378536 52.1162227,2.93654398 51.9,3.15 C51.7929958,3.25273157 51.6674322,3.33417822 51.53,3.39 C51.3835963,3.45297076 51.2285079,3.49342861 51.07,3.51 L52.37,5.67 L51.8,5.67 L50.56,3.54 L49.79,3.54 L49.79,5.67 Z M49.79,3.14 L50.59,3.14 C50.890043,3.1587032 51.1889993,3.08917848 51.45,2.94 C51.6517509,2.80482417 51.7660995,2.57231536 51.75,2.33 C51.755795,2.19861458 51.7282755,2.06789689 51.67,1.95 C51.6157185,1.84855022 51.5365825,1.76253282 51.44,1.7 C51.3295872,1.63167866 51.2075616,1.58422427 51.08,1.56 C50.9237629,1.54359217 50.7662371,1.54359217 50.61,1.56 L49.79,1.56 L49.79,3.14 Z" id="Shape" fill="#CECECE" fill-rule="nonzero"></path>
                <polygon id="Path" fill="#CECECE" fill-rule="nonzero" points="54.97 5.26 57.37 5.26 57.37 5.67 54.47 5.67 54.47 1.12 57.37 1.12 57.37 1.53 54.97 1.53 54.97 3.09 57.18 3.09 57.18 3.5 54.97 3.5"></polygon>
                <path d="M59.64,1.12 L61.15,1.12 C61.4389856,1.12104724 61.7259436,1.16831092 62,1.26 C62.2815034,1.35345521 62.5427701,1.49935739 62.77,1.69 C63.0044537,1.88471602 63.1952626,2.12663445 63.33,2.4 C63.4768039,2.71247002 63.5487084,3.05487239 63.54,3.4 C63.5490789,3.74516128 63.4771567,4.0876482 63.33,4.4 C63.1950095,4.67320571 63.0042393,4.91507501 62.77,5.11 C62.5429082,5.30084286 62.2816014,5.44676744 62,5.54 C61.7259436,5.63168908 61.4389856,5.67895276 61.15,5.68 L59.64,5.68 L59.64,1.12 Z M60.1,5.26 L61.02,5.26 C61.3276835,5.2674203 61.6337268,5.21301259 61.92,5.1 C62.1563109,5.00417498 62.3706573,4.86127732 62.55,4.68 C62.7158683,4.51153879 62.8452271,4.31069216 62.93,4.09 C63.0937262,3.64456862 63.0937262,3.15543138 62.93,2.71 C62.8452271,2.48930784 62.7158683,2.28846121 62.55,2.12 C62.3706573,1.93872268 62.1563109,1.79582502 61.92,1.7 C61.6336529,1.58724862 61.3276628,1.53285038 61.02,1.54 L60.1,1.54 L60.1,5.26 Z" id="Shape" fill="#CECECE" fill-rule="nonzero"></path>
                <path d="M68.77,1.1199602 L70.13,1.1199602 C70.3045786,1.11903028 70.4788048,1.1357828 70.65,1.17 C70.8166699,1.20504076 70.975802,1.26937078 71.12,1.36 C71.2617216,1.44959864 71.3786393,1.57339388 71.46,1.72 C71.5530334,1.89513976 71.5978952,2.09184145 71.59,2.29 C71.590964,2.51899526 71.5133043,2.74138415 71.37,2.92 C71.220754,3.10258427 71.0117833,3.22654993 70.78,3.27 L70.78,3.27 C71.0587577,3.2936105 71.3205064,3.4138734 71.52,3.61 C71.7195065,3.82329039 71.8241257,4.10828767 71.81,4.4 C71.8148799,4.76310557 71.6434124,5.10604054 71.35,5.32 C71.1901143,5.43505371 71.0104726,5.51979037 70.82,5.57 C70.5886892,5.63296736 70.3497059,5.66326102 70.11,5.66 L68.77,5.66 L68.77,1.1199602 Z M69.23,3.12 L70.16,3.12 C70.2729719,3.13280007 70.3870281,3.13280007 70.5,3.12 C70.6103721,3.09585671 70.7154211,3.05180389 70.81,2.99 C70.9055095,2.92620459 70.9843711,2.84048556 71.04,2.74 C71.1025861,2.62333453 71.1336103,2.49234356 71.13,2.36 C71.1433765,2.11065568 71.0209942,1.8735401 70.81,1.74 C70.7032636,1.67156706 70.584487,1.62405641 70.46,1.6 C70.320388,1.58525926 70.179612,1.58525926 70.04,1.6 L69.24,1.6 L69.23,3.12 Z M69.23,5.28 L70.09,5.28 C70.2495659,5.29666848 70.4104341,5.29666848 70.57,5.28 C70.7110071,5.25351723 70.8463485,5.20276419 70.97,5.13 C71.0882357,5.05222755 71.1846216,4.94551451 71.25,4.82 C71.3208656,4.69531313 71.3554999,4.5533126 71.35,4.41 C71.3655859,4.14880753 71.2491708,3.89720055 71.04,3.74 C70.7805594,3.57651543 70.4759675,3.49949219 70.17,3.52 L69.22,3.52 L69.23,5.28 Z" id="Shape" fill="#CECECE" fill-rule="nonzero"></path>
                <polygon id="Path" fill="#CECECE" fill-rule="nonzero" points="75.75 5.67 75.29 5.67 75.29 3.67 73.58 1.12 74.16 1.12 75.53 3.33 76.92 1.12 77.46 1.12 75.76 3.71"></polygon>
                <rect id="Rectangle" fill="#CECECE" fill-rule="nonzero" x="83.16" y="3.17" width="9.42" height="1"></rect>
                <rect id="Rectangle" fill="#CECECE" fill-rule="nonzero" x="9.49" y="3.17" width="9.42" height="1"></rect>
            </g>
        </g>
    </g>
</svg>